<svg width="40" height="28" viewBox="0 0 40 28" fill="none" xmlns="http://www.w3.org/2000/svg">
<g opacity="0.5">
<path d="M23.8318 23.8599C25.3894 26.1099 27.8505 27.2349 31.2149 27.2349C33.8318 27.2349 35.9501 26.5355 37.5701 25.1369C39.19 23.6774 40 21.7619 40 19.3903C40 16.897 39.2523 14.9815 37.757 13.6436C36.2617 12.245 34.2679 11.5457 31.7757 11.5457C28.8473 11.5457 26.5732 12.4882 24.9533 14.3734C24.8287 13.9477 24.7664 13.2788 24.7664 12.3666C24.7664 11.2112 24.9221 10.2078 25.2336 9.35648C25.7321 7.83621 26.6044 6.40716 27.8505 5.06932C29.1589 3.67067 30.623 2.60648 32.243 1.87676L31.4019 0.234863C28.162 1.69432 25.7009 3.76189 24.0187 6.43756C22.3364 9.11324 21.4953 12.0322 21.4953 15.1943C21.4953 17.0186 21.7134 18.6909 22.1495 20.2112C22.5857 21.7315 23.1464 22.9477 23.8318 23.8599Z" fill="#FF5A3C"/>
<path d="M2.33645 23.8599C3.89408 26.1099 6.35514 27.2349 9.71963 27.2349C12.3364 27.2349 14.4548 26.5355 16.0748 25.1369C17.6947 23.6774 18.5047 21.7619 18.5047 19.3903C18.5047 16.897 17.757 14.9815 16.2617 13.6436C14.7664 12.245 12.7726 11.5457 10.2804 11.5457C7.35202 11.5457 5.07788 12.4882 3.45794 14.3734C3.33333 13.9477 3.27103 13.2788 3.27103 12.3666C3.27103 11.2112 3.42679 10.2078 3.73832 9.35648C4.23676 7.83621 5.10903 6.40716 6.35514 5.06932C7.66355 3.67067 9.12772 2.60648 10.7477 1.87676L9.90654 0.234863C6.66667 1.69432 4.20561 3.76189 2.52336 6.43756C0.841121 9.11324 0 12.0322 0 15.1943C0 17.0186 0.218069 18.6909 0.654206 20.2112C1.09034 21.7315 1.65109 22.9477 2.33645 23.8599Z" fill="#FF5A3C"/>
</g>
</svg>
