<svg width="144" height="24" viewBox="0 0 144 24" fill="none" xmlns="http://www.w3.org/2000/svg">
<path d="M17.6392 14.7955L19.4155 23.2349L11.9995 18.9246V12.949L17.6392 14.7955Z" fill="#FEE25D"/>
<path d="M19.4155 23.2349L17.6392 14.7955L11.9995 12.949L19.4155 23.2349Z" fill="#FAC030"/>
<path d="M11.9995 18.9246L4.5835 23.2349L6.35981 14.7955L11.9995 12.949V18.9246Z" fill="#FFF277"/>
<path d="M4.5835 23.2349L11.9995 18.9246V12.949L4.5835 23.2349Z" fill="#FED835"/>
<path d="M15.4865 8.1145L24.0004 9.02001L17.6407 14.7954L12.001 12.9489L15.4865 8.1145Z" fill="#FED839"/>
<path d="M17.6397 14.7956L23.9994 9.02014L12 12.949L17.6397 14.7956Z" fill="#FAA922"/>
<path d="M6.35967 14.7954L0 9.02001L8.51384 8.1145L11.9994 12.9489L6.35967 14.7954Z" fill="#FDF5A3"/>
<path d="M0 9.02014L6.35967 14.7956L11.9994 12.949L0 9.02014Z" fill="#FBDA37"/>
<path d="M11.9997 0.234863L15.4852 8.11456L11.9997 12.9489L8.51416 8.11456L11.9997 0.234863Z" fill="#FEF278"/>
<path d="M15.485 8.11456L11.9995 0.234863V12.9489L15.485 8.11456Z" fill="#FCC02C"/>
<path d="M47.6392 14.7955L49.4155 23.2349L41.9995 18.9246V12.949L47.6392 14.7955Z" fill="#FEE25D"/>
<path d="M49.4155 23.2349L47.6392 14.7955L41.9995 12.949L49.4155 23.2349Z" fill="#FAC030"/>
<path d="M41.9995 18.9246L34.5835 23.2349L36.3598 14.7955L41.9995 12.949V18.9246Z" fill="#FFF277"/>
<path d="M34.5835 23.2349L41.9995 18.9246V12.949L34.5835 23.2349Z" fill="#FED835"/>
<path d="M45.4865 8.1145L54.0004 9.02001L47.6407 14.7954L42.001 12.9489L45.4865 8.1145Z" fill="#FED839"/>
<path d="M47.6397 14.7956L53.9994 9.02014L42 12.949L47.6397 14.7956Z" fill="#FAA922"/>
<path d="M36.3597 14.7954L30 9.02001L38.5138 8.1145L41.9994 12.9489L36.3597 14.7954Z" fill="#FDF5A3"/>
<path d="M30 9.02014L36.3597 14.7956L41.9994 12.949L30 9.02014Z" fill="#FBDA37"/>
<path d="M41.9997 0.234863L45.4852 8.11456L41.9997 12.9489L38.5142 8.11456L41.9997 0.234863Z" fill="#FEF278"/>
<path d="M45.485 8.11456L41.9995 0.234863V12.9489L45.485 8.11456Z" fill="#FCC02C"/>
<path d="M77.6392 14.7955L79.4155 23.2349L71.9995 18.9246V12.949L77.6392 14.7955Z" fill="#FEE25D"/>
<path d="M79.4155 23.2349L77.6392 14.7955L71.9995 12.949L79.4155 23.2349Z" fill="#FAC030"/>
<path d="M71.9995 18.9246L64.5835 23.2349L66.3598 14.7955L71.9995 12.949V18.9246Z" fill="#FFF277"/>
<path d="M64.5835 23.2349L71.9995 18.9246V12.949L64.5835 23.2349Z" fill="#FED835"/>
<path d="M75.4865 8.1145L84.0004 9.02001L77.6407 14.7954L72.001 12.9489L75.4865 8.1145Z" fill="#FED839"/>
<path d="M77.6397 14.7956L83.9994 9.02014L72 12.949L77.6397 14.7956Z" fill="#FAA922"/>
<path d="M66.3597 14.7954L60 9.02001L68.5138 8.1145L71.9994 12.9489L66.3597 14.7954Z" fill="#FDF5A3"/>
<path d="M60 9.02014L66.3597 14.7956L71.9994 12.949L60 9.02014Z" fill="#FBDA37"/>
<path d="M71.9997 0.234863L75.4852 8.11456L71.9997 12.9489L68.5142 8.11456L71.9997 0.234863Z" fill="#FEF278"/>
<path d="M75.485 8.11456L71.9995 0.234863V12.9489L75.485 8.11456Z" fill="#FCC02C"/>
<path d="M107.639 14.7955L109.416 23.2349L102 18.9246V12.949L107.639 14.7955Z" fill="#FEE25D"/>
<path d="M109.416 23.2349L107.639 14.7955L102 12.949L109.416 23.2349Z" fill="#FAC030"/>
<path d="M102 18.9246L94.5835 23.2349L96.3598 14.7955L102 12.949V18.9246Z" fill="#FFF277"/>
<path d="M94.5835 23.2349L102 18.9246V12.949L94.5835 23.2349Z" fill="#FED835"/>
<path d="M105.487 8.1145L114 9.02001L107.641 14.7954L102.001 12.9489L105.487 8.1145Z" fill="#FED839"/>
<path d="M107.64 14.7956L113.999 9.02014L102 12.949L107.64 14.7956Z" fill="#FAA922"/>
<path d="M96.3597 14.7954L90 9.02001L98.5138 8.1145L101.999 12.9489L96.3597 14.7954Z" fill="#FDF5A3"/>
<path d="M90 9.02014L96.3597 14.7956L101.999 12.949L90 9.02014Z" fill="#FBDA37"/>
<path d="M102 0.234863L105.485 8.11456L102 12.9489L98.5142 8.11456L102 0.234863Z" fill="#FEF278"/>
<path d="M105.485 8.11456L102 0.234863V12.9489L105.485 8.11456Z" fill="#FCC02C"/>
<path d="M137.639 14.7955L139.416 23.2349L132 18.9246V12.949L137.639 14.7955Z" fill="#FEE25D"/>
<path d="M139.416 23.2349L137.639 14.7955L132 12.949L139.416 23.2349Z" fill="#FAC030"/>
<path d="M132 18.9246L124.583 23.2349L126.36 14.7955L132 12.949V18.9246Z" fill="#FFF277"/>
<path d="M124.583 23.2349L132 18.9246V12.949L124.583 23.2349Z" fill="#FED835"/>
<path d="M135.487 8.1145L144 9.02001L137.641 14.7954L132.001 12.9489L135.487 8.1145Z" fill="#FED839"/>
<path d="M137.64 14.7956L143.999 9.02014L132 12.949L137.64 14.7956Z" fill="#FAA922"/>
<path d="M126.36 14.7954L120 9.02001L128.514 8.1145L131.999 12.9489L126.36 14.7954Z" fill="#FDF5A3"/>
<path d="M120 9.02014L126.36 14.7956L131.999 12.949L120 9.02014Z" fill="#FBDA37"/>
<path d="M132 0.234863L135.485 8.11456L132 12.9489L128.514 8.11456L132 0.234863Z" fill="#FEF278"/>
<path d="M135.485 8.11456L132 0.234863V12.9489L135.485 8.11456Z" fill="#FCC02C"/>
</svg>
