<svg width="148" height="35" viewBox="0 0 148 35" fill="none" xmlns="http://www.w3.org/2000/svg">
<path d="M56.9354 16.8437C56.9354 18.3557 56.0954 19.3397 54.2234 19.3397H51.4154V14.4197H54.2234C56.0954 14.4197 56.9354 15.3557 56.9354 16.8437ZM48.0554 11.6357V28.3877H51.4154V21.8597H52.9994L56.6954 28.3877H60.5834L56.5754 21.5957C59.2634 20.8757 60.3914 18.8117 60.3914 16.7717C60.3914 13.9637 58.3754 11.6357 54.3434 11.6357H48.0554ZM69.1424 17.6357C70.8704 17.6357 72.2624 18.7397 72.3104 20.4917H65.9984C66.2624 18.6677 67.5344 17.6357 69.1424 17.6357ZM75.4544 24.2117H71.8304C71.3984 25.0997 70.6064 25.8197 69.1664 25.8197C67.4864 25.8197 66.1424 24.7157 65.9744 22.7477H75.6944C75.7664 22.3157 75.7904 21.8837 75.7904 21.4517C75.7904 17.4917 73.0784 14.8757 69.2384 14.8757C65.3024 14.8757 62.5664 17.5397 62.5664 21.7397C62.5664 25.9157 65.3744 28.6037 69.2384 28.6037C72.5264 28.6037 74.7344 26.6597 75.4544 24.2117ZM77.3789 21.6917C77.3789 25.8437 80.0669 28.6037 83.4269 28.6037C85.5389 28.6037 87.0509 27.5957 87.8429 26.4437V28.3877H91.2269V15.0917H87.8429V16.9877C87.0509 15.8837 85.5869 14.8757 83.4509 14.8757C80.0669 14.8757 77.3789 17.5397 77.3789 21.6917ZM87.8429 21.7397C87.8429 24.2597 86.1629 25.6517 84.3149 25.6517C82.5149 25.6517 80.8109 24.2117 80.8109 21.6917C80.8109 19.1717 82.5149 17.8277 84.3149 17.8277C86.1629 17.8277 87.8429 19.2197 87.8429 21.7397ZM103.821 28.3877H107.181V20.5877C107.181 16.9157 104.973 14.8997 101.877 14.8997C100.173 14.8997 98.7325 15.6197 97.8685 16.7477V15.0917H94.5085V28.3877H97.8685V21.0437C97.8685 18.9077 99.0445 17.7557 100.869 17.7557C102.645 17.7557 103.821 18.9077 103.821 21.0437V28.3877ZM110.904 24.2597C110.904 27.3077 112.608 28.3877 115.152 28.3877H117.264V25.5557H115.704C114.648 25.5557 114.288 25.1717 114.288 24.2837V17.8517H117.264V15.0917H114.288V11.8037H110.904V15.0917H109.32V17.8517H110.904V24.2597ZM125.344 24.3797L121.912 15.0917H118.144L123.472 28.0517L120.592 34.6757H124.168L132.4 15.0917H128.824L125.344 24.3797Z" fill="white"/>
<path d="M137.74 26.5877C137.74 25.4837 136.876 24.6197 135.7 24.6197C134.476 24.6197 133.612 25.4837 133.612 26.5877C133.612 27.6917 134.476 28.5557 135.7 28.5557C136.876 28.5557 137.74 27.6917 137.74 26.5877Z" fill="#FF5A3C"/>
<path d="M37.4985 14.0976L20.6504 0.930576C19.9109 0.352547 18.7957 0.35261 18.0565 0.930513L1.20824 14.0977C0.615852 14.5606 0.420173 15.274 0.709584 15.9149C0.999068 16.5558 1.70389 16.9699 2.50531 16.9699H5.19626V30.1623C5.19626 30.6854 5.69073 31.1095 6.30058 31.1095H15.5355C16.1453 31.1095 16.6398 30.6854 16.6398 30.1623V22.1523H22.0673V30.1624C22.0673 30.6854 22.5618 31.1095 23.1716 31.1095H32.4061C33.0159 31.1095 33.5104 30.6855 33.5104 30.1624V16.9699H36.2018C37.0032 16.9699 37.7081 16.5558 37.9976 15.9149C38.2866 15.2739 38.0909 14.5606 37.4985 14.0976Z" fill="#FF5A3C"/>
<path d="M33.2201 2.3877H25.8037L34.3244 9.03266V3.33478C34.3244 2.81173 33.83 2.3877 33.2201 2.3877Z" fill="#FF5A3C"/>
</svg>
