<svg width="228" height="122" viewBox="0 0 228 122" fill="none" xmlns="http://www.w3.org/2000/svg">
<path d="M125.215 116.318C126.452 116.027 127.561 116.238 128.709 116.662C138.287 120.202 148.171 121.905 158.407 121.757C170.529 121.583 182.464 120.456 194.022 116.416C200.087 114.298 206.049 111.983 211.763 109.052C212.414 108.719 213.113 108 213.842 108.525C214.775 109.195 214.026 110.113 213.84 110.896C213.362 112.896 212.69 114.855 212.332 116.875C212.062 118.397 213.082 120.047 214.186 120.322C215.697 120.702 216.291 119.54 216.961 118.56C217.267 118.115 217.568 117.659 217.832 117.188C220.803 111.897 223.746 106.591 226.746 101.313C227.865 99.3368 228.043 97.3994 226.708 95.5146C225.401 93.6672 223.499 93.5402 221.444 93.9148C214.278 95.211 207.105 96.4702 199.934 97.763C198.974 97.936 198.013 98.1686 197.105 98.5101C196.157 98.8673 195.343 99.4925 195.41 100.645C195.478 101.826 196.392 102.271 197.402 102.449C198.36 102.619 199.35 102.614 200.313 102.767C201.341 102.924 202.462 102.608 203.466 103.295C202.986 104.385 201.958 104.507 201.107 104.88C189.527 109.957 177.383 112.655 164.781 113.284C156.949 113.675 149.129 113.675 141.445 111.771C140.777 111.603 139.845 111.767 139.679 110.56C142.894 108.414 146.005 106.067 148.947 103.491C165.817 88.7181 163.869 64.0639 149.246 51.5553C146.184 48.9361 143.064 46.3698 139.486 44.5465C130.149 39.7942 120.301 38.7413 110.425 42.3636C91.6894 49.2425 87.7548 71.2949 92.3455 83.7617C95.8069 93.1721 102.161 100.49 110.073 106.537C111.336 107.503 112.846 108.166 114.007 109.532C113.207 110.193 112.646 110.171 112.115 110.195C104.123 110.543 96.2448 109.779 88.585 107.464C71.3708 102.256 56.1329 93.4316 42.6252 81.7255C33.7297 74.0188 26.4201 64.8238 19.9065 55.0661C11.4363 42.3587 5.61637 28.5935 4.00624 13.2692C3.61603 9.57139 3.5035 5.90395 5.66246 2.59336C6.07563 1.96 6.70751 1.26604 5.91288 0.609085C5.05849 -0.0963677 4.28529 0.521452 3.6233 1.11922C2.8803 1.78664 2.42808 2.65144 2.00498 3.53639C1.00797 5.62561 0.540291 7.8438 0.464334 10.1353C0.11466 20.6984 2.17221 30.8614 6.33821 40.5004C15.6201 61.9568 29.2138 80.2735 47.8195 94.5916C61.0884 104.808 75.6736 112.653 92.2638 116.217C103.218 118.573 114.223 118.918 125.215 116.318ZM125.343 106.032C116.104 101.351 108.088 95.3359 102.309 86.5423C96.0798 77.0637 96.9674 63.1859 104.622 54.9046C108.91 50.266 114.359 48.0264 120.561 47.8481C127.339 47.655 133.693 49.215 139.236 53.3727C143.603 56.6499 147.66 60.1864 150.166 65.1709C151.247 67.3216 151.907 69.5905 152.173 71.5875C154.024 81.3813 151.603 89.5149 144.723 96.2931C140.588 100.366 135.954 103.7 130.632 106.073C128.838 106.875 127.172 106.955 125.343 106.032Z" fill="#FF5A3C"/>
</svg>
