<svg width="17" height="13" viewBox="0 0 17 13" fill="none" xmlns="http://www.w3.org/2000/svg">
<path fill-rule="evenodd" clip-rule="evenodd" d="M0.819765 3.61293C0.586312 5.67355 0.596718 8.05013 0.921571 10.1024C1.10132 11.2379 2.07688 12.1085 3.2811 12.2079L4.53963 12.3119C7.16383 12.5286 9.80289 12.5286 12.4271 12.3119L13.6856 12.2079C14.8898 12.1085 15.8654 11.2379 16.0451 10.1024C16.37 8.05012 16.3804 5.67369 16.147 3.61305C16.1168 3.37416 16.0828 3.13559 16.0451 2.89741C15.8654 1.76185 14.8898 0.891302 13.6856 0.791855L12.4271 0.687924C9.80288 0.471213 7.16383 0.471213 4.53963 0.687924L3.2811 0.791855C2.07688 0.891302 1.10132 1.76185 0.921571 2.89741C0.883877 3.13554 0.849942 3.37408 0.819765 3.61293ZM4.64788 1.87096C7.20005 1.6602 9.76666 1.6602 12.3188 1.87096L13.5774 1.97489C14.206 2.02681 14.7152 2.48124 14.809 3.074C14.8188 3.13556 14.8283 3.19714 14.8375 3.25876L10.2033 5.70457C9.13365 6.26911 7.83301 6.26911 6.76334 5.70457L2.12923 3.25879C2.13845 3.19716 2.14793 3.13557 2.15767 3.074C2.2515 2.48124 2.76075 2.02681 3.38935 1.97489L4.64788 1.87096ZM14.9904 4.53648C15.1521 6.33178 15.0916 8.14062 14.809 9.9258C14.7152 10.5186 14.206 10.973 13.5774 11.0249L12.3188 11.1288C9.76667 11.3396 7.20005 11.3396 4.64788 11.1288L3.38935 11.0249C2.76075 10.973 2.2515 10.5186 2.15767 9.9258C1.8751 8.14063 1.81463 6.3318 1.97627 4.53651L6.15629 6.74263C7.60348 7.50642 9.36318 7.50643 10.8104 6.74263L14.9904 4.53648Z" fill="#FF5A3C"/>
</svg>
