<svg width="18" height="17" viewBox="0 0 18 17" fill="none" xmlns="http://www.w3.org/2000/svg">
<path fill-rule="evenodd" clip-rule="evenodd" d="M5.65651 7.08317C5.65651 5.22496 7.16289 3.71859 9.0211 3.71859C10.8793 3.71859 12.3857 5.22496 12.3857 7.08317C12.3857 8.94138 10.8793 10.4478 9.0211 10.4478C7.16289 10.4478 5.65651 8.94138 5.65651 7.08317ZM9.0211 4.78109C7.74969 4.78109 6.71901 5.81177 6.71901 7.08317C6.71901 8.35458 7.74969 9.38525 9.0211 9.38525C10.2925 9.38525 11.3232 8.35458 11.3232 7.08317C11.3232 5.81177 10.2925 4.78109 9.0211 4.78109Z" fill="#FF5A3C"/>
<path fill-rule="evenodd" clip-rule="evenodd" d="M3.01752 6.27344C3.2685 3.22859 5.81294 0.885254 8.86812 0.885254H9.17407C12.2293 0.885254 14.7737 3.22859 15.0247 6.27344C15.1595 7.90909 14.6543 9.53322 13.6154 10.8037L10.2203 14.9558C9.6005 15.7138 8.4417 15.7138 7.8219 14.9558L4.42682 10.8037C3.38794 9.53322 2.8827 7.90909 3.01752 6.27344ZM8.86812 1.94775C6.3659 1.94775 4.28198 3.86697 4.07643 6.36073C3.96422 7.72203 4.38472 9.07375 5.24935 10.1312L8.64444 14.2833C8.83911 14.5214 9.20308 14.5214 9.39776 14.2833L12.7928 10.1312C13.6575 9.07375 14.078 7.72203 13.9658 6.36073C13.7602 3.86697 11.6763 1.94775 9.17407 1.94775H8.86812Z" fill="#FF5A3C"/>
</svg>
