<svg width="19" height="20" viewBox="0 0 19 20" fill="none" xmlns="http://www.w3.org/2000/svg">
<path fill-rule="evenodd" clip-rule="evenodd" d="M8.81041 0.708373C9.30875 0.431519 9.91469 0.431519 10.413 0.708373L17.613 4.70837C18.1368 4.99938 18.4617 5.55151 18.4617 6.15073V14.0916C18.4617 14.6908 18.1368 15.243 17.613 15.534L10.413 19.534C9.9147 19.8108 9.30875 19.8108 8.81041 19.534L1.61041 15.534C1.08659 15.243 0.761719 14.6908 0.761719 14.0916V6.15073C0.761719 5.55151 1.08659 4.99938 1.61041 4.70837L8.81041 0.708373ZM9.68457 2.01961C9.63926 1.99444 9.58418 1.99444 9.53887 2.01961L2.33887 6.01961C2.29125 6.04606 2.26172 6.09626 2.26172 6.15073V14.0916C2.26172 14.1461 2.29125 14.1963 2.33887 14.2227L9.53887 18.2227C9.58418 18.2479 9.63926 18.2479 9.68457 18.2227L16.8846 14.2227C16.9322 14.1963 16.9617 14.1461 16.9617 14.0916V6.15073C16.9617 6.09626 16.9322 6.04606 16.8846 6.01961L9.68457 2.01961Z" fill="#FF5A3C"/>
<path fill-rule="evenodd" clip-rule="evenodd" d="M4.86172 10.1212C4.86172 7.49782 6.98837 5.37117 9.61172 5.37117C12.2351 5.37117 14.3617 7.49782 14.3617 10.1212C14.3617 12.7445 12.2351 14.8712 9.61172 14.8712C6.98837 14.8712 4.86172 12.7445 4.86172 10.1212ZM9.61172 6.87117C7.81679 6.87117 6.36172 8.32624 6.36172 10.1212C6.36172 11.9161 7.81679 13.3712 9.61172 13.3712C11.4066 13.3712 12.8617 11.9161 12.8617 10.1212C12.8617 8.32624 11.4066 6.87117 9.61172 6.87117Z" fill="#FF5A3C"/>
</svg>
