<svg width="35" height="41" viewBox="0 0 35 41" fill="none" xmlns="http://www.w3.org/2000/svg">
<path d="M14.6704 35.5919H0.109863V30.8763C0.109863 29.8836 0.523514 28.9322 1.30945 28.3117C5.57005 24.7957 10.2029 22.4792 11.113 22.0242C11.2371 21.9828 11.2784 21.8587 11.2784 21.7346V19.2941C10.6579 18.2186 10.2857 17.019 10.1202 15.9435C9.74792 15.9022 9.25154 15.4058 8.71379 13.503C8.05195 11.1038 8.67243 10.6074 9.2929 10.6074C9.33427 10.6074 9.37563 10.6074 9.417 10.6074C8.92062 9.2424 8.92062 7.91871 9.25154 6.71913C9.58246 5.27135 10.3684 4.11313 11.2371 3.2031C11.7748 2.62399 12.4366 2.08624 13.0985 1.67259C13.6362 1.30031 14.2567 0.969386 14.8772 0.762561C15.4149 0.597101 15.9527 0.473006 16.5318 0.473006C16.78 0.431641 16.9868 0.431641 17.235 0.431641C18.6828 0.431641 19.7996 0.845291 20.6269 1.34167C22.0747 2.12761 22.6124 3.2031 22.6124 3.2031C22.6124 3.2031 26.2526 3.45129 24.6393 11.0625C25.1357 11.2279 25.4666 11.8898 24.8875 13.9166C24.3498 15.8608 23.812 16.3572 23.4397 16.3572C23.3157 16.3572 23.2329 16.3158 23.1502 16.2745C22.9847 17.1431 22.7365 18.0532 22.3229 18.9218C22.3229 20.1628 22.3229 21.321 22.3229 21.776C22.3229 21.9001 22.4056 21.9828 22.4883 22.0656C22.902 22.2724 24.1016 22.8929 25.7148 23.8029C25.5907 23.927 25.4253 24.0511 25.3012 24.1752C24.1843 25.2507 23.6052 26.6571 23.6052 28.2703C23.6052 30.1731 24.267 31.3727 24.9703 32.1173C24.5152 32.2414 24.143 32.4896 23.812 32.8205C23.357 33.3169 23.1088 33.9373 23.1502 34.5992C23.1502 34.9715 23.2329 35.3024 23.2743 35.6333H19.0551H14.6704V35.5919ZM31.0923 22.3551H29.6859C29.479 22.3551 29.3136 22.5206 29.3136 22.7274V24.382C28.2381 24.5475 27.4108 24.9197 26.749 25.5402C26.0457 26.2434 25.6735 27.1121 25.6735 28.1876C25.6735 29.3872 26.0044 30.2558 26.7076 30.8763C27.4108 31.4968 28.4863 32.0759 29.9754 32.6964C30.5959 32.9446 31.0096 33.2341 31.2577 33.5237C31.5059 33.8132 31.63 34.1855 31.63 34.6819C31.63 35.0956 31.5059 35.4678 31.2577 35.716C31.0096 35.9642 30.6786 36.1297 30.2236 36.1297C29.6859 36.1297 29.2309 35.9642 28.8999 35.5919C28.6104 35.3024 28.4449 34.8887 28.4036 34.3096C28.4036 34.1028 28.1967 33.896 27.9485 33.896L25.6735 33.9373C25.4253 33.9373 25.2184 34.1442 25.2184 34.3923C25.2598 35.5919 25.6735 36.5433 26.3767 37.2052C27.1626 37.9084 28.1554 38.322 29.3136 38.4875V40.0594C29.3136 40.2662 29.479 40.4316 29.6859 40.4316H31.0923C31.2991 40.4316 31.4646 40.2662 31.4646 40.0594V38.4461C32.416 38.2807 33.1605 37.9084 33.781 37.3293C34.4842 36.6674 34.8151 35.7574 34.8151 34.6819C34.8151 33.5237 34.4842 32.6136 33.781 31.9932C33.0778 31.3727 32.0023 30.7522 30.5132 30.1317C29.8927 29.8422 29.4377 29.594 29.2309 29.3044C28.9827 29.0149 28.8999 28.684 28.8999 28.229C28.8999 27.8153 29.024 27.443 29.2309 27.1535C29.4377 26.8639 29.7686 26.7398 30.2236 26.7398C30.6786 26.7398 31.0096 26.9053 31.2991 27.2362C31.5059 27.5257 31.63 27.898 31.6714 28.3944C31.6714 28.6012 31.8782 28.7667 32.1264 28.7667L34.4015 28.7253C34.6497 28.7253 34.8565 28.5185 34.8565 28.2703C34.8151 27.2776 34.4842 26.4503 33.9051 25.747C33.2846 25.0438 32.4987 24.5888 31.5059 24.382V22.6447C31.5059 22.5206 31.2991 22.3551 31.0923 22.3551Z" fill="#FF5A3C"/>
</svg>
