<svg width="41" height="35" viewBox="0 0 41 35" fill="none" xmlns="http://www.w3.org/2000/svg">
<path fill-rule="evenodd" clip-rule="evenodd" d="M14.8778 15.957C6.92788 15.957 0.483398 22.4015 0.483398 30.3509C0.483398 31.6126 0.64637 32.8356 0.951267 34.0013H28.3746C29.0421 34.1413 29.7336 34.2152 30.4428 34.2152C35.9882 34.2152 40.4834 29.72 40.4834 24.1746C40.4834 18.6292 35.9882 14.134 30.4428 14.134C27.1785 14.134 24.2782 15.6922 22.4444 18.105C20.2455 16.7435 17.6537 15.957 14.8778 15.957ZM26.5178 25.9957L28.7519 25.6555C28.8459 26.0847 29.0377 26.4112 29.3289 26.6324C29.6176 26.856 30.0253 26.9671 30.5456 26.9671C31.1201 26.9671 31.5518 26.8614 31.8435 26.6515C32.0377 26.5027 32.1347 26.3035 32.1347 26.0549C32.1347 25.888 32.0808 25.7475 31.9756 25.6369C31.865 25.5317 31.6169 25.4319 31.2337 25.3428C29.4395 24.9464 28.3041 24.5847 27.8235 24.2583C27.1574 23.8027 26.8256 23.1713 26.8256 22.3648C26.8256 21.6336 27.1143 21.0209 27.6889 20.5246C28.1059 20.1644 28.6892 19.9349 29.439 19.836V18.6918H31.4475V19.8478C32.0656 19.9334 32.5575 20.0988 32.9226 20.344C33.481 20.7214 33.8667 21.2773 34.0771 22.0139L31.9888 22.4025C31.8997 22.0731 31.7275 21.8196 31.4764 21.6444C31.2253 21.4687 30.8666 21.3825 30.4002 21.3825C29.8119 21.3825 29.391 21.4633 29.1346 21.6282C28.9648 21.7442 28.8811 21.895 28.8811 22.0785C28.8811 22.2375 28.954 22.3726 29.1023 22.4832C29.3049 22.6315 29.9979 22.8395 31.1852 23.1092C32.372 23.3788 33.2006 23.7082 33.6699 24.0992C34.1363 24.4932 34.3683 25.0462 34.3683 25.7529C34.3683 26.5218 34.0472 27.1854 33.4027 27.7384C32.9236 28.151 32.2722 28.4104 31.4475 28.5156V29.6574H29.439V28.4853C28.8003 28.3805 28.263 28.1769 27.8264 27.876C27.1599 27.4145 26.7233 26.789 26.5178 25.9957ZM30.4428 16.6989C26.3137 16.6989 22.9671 20.046 22.9671 24.1746C22.9671 28.3037 26.3137 31.6507 30.4428 31.6507C34.5719 31.6507 37.9184 28.3037 37.9184 24.1746C37.9184 20.046 34.5719 16.6989 30.4428 16.6989ZM14.8778 0.647949C11.3071 0.647949 8.41273 3.54229 8.41273 7.11298C8.41273 10.6837 11.3071 13.578 14.8778 13.578C18.448 13.578 21.3428 10.6837 21.3428 7.11298C21.3428 3.54229 18.448 0.647949 14.8778 0.647949Z" fill="white"/>
</svg>
