<svg width="39" height="41" viewBox="0 0 39 41" fill="none" xmlns="http://www.w3.org/2000/svg">
<path d="M18.5829 34.501H13.8418H12.3106C8.28295 34.501 5.00509 34.2614 5.00509 30.2817V20.2454H2.6859C1.89468 20.2454 1.18398 19.7708 0.881474 19.0468C0.579787 18.3187 0.748086 17.4837 1.3043 16.9273L16.7229 1.57115C17.4597 0.836589 18.4412 0.431641 19.4829 0.431641C20.5253 0.431641 21.5068 0.836589 22.2436 1.57115C24.7954 4.11264 26.7092 6.01875 27.9851 7.28949C28.0777 7.38171 28.334 7.63697 28.389 7.69173C28.4257 7.72825 28.444 7.47654 28.444 6.93661C28.5392 5.59464 29.6475 4.53532 31.0202 4.53532H31.0356C32.4684 4.53532 33.628 5.6902 33.628 7.1164V12.4786C33.628 12.6212 33.6085 12.7451 33.5866 12.8714L37.6622 16.9273C38.2208 17.4837 38.3867 18.3187 38.0842 19.0468C37.7825 19.7708 37.071 20.2454 36.2806 20.2454H33.628V21.5285C36.4041 23.3765 38.2334 26.5342 38.2334 30.1191C38.2334 35.8146 33.6163 40.4316 27.9209 40.4316C23.7922 40.4316 20.2302 38.0054 18.5829 34.501ZM27.9209 39.4941C33.0986 39.4941 37.2959 35.2968 37.2959 30.1191C37.2959 24.9415 33.0986 20.7441 27.9209 20.7441C22.7432 20.7441 18.5459 24.9415 18.5459 30.1191C18.5459 35.2968 22.7432 39.4941 27.9209 39.4941ZM31.7981 31.8396C31.7981 32.5294 31.5508 33.1257 31.0563 33.6285C30.5617 34.1314 29.8449 34.4534 28.9058 34.5947V35.2305C28.9058 35.6436 28.5709 35.9785 28.1578 35.9785C27.7447 35.9785 27.4097 35.6436 27.4097 35.2305V34.6446C26.7864 34.603 26.1963 34.4971 25.6395 34.3267C25.293 34.2207 24.9835 34.0994 24.7111 33.9628C24.4486 33.8312 24.336 33.5166 24.4554 33.2484C24.4594 33.2394 24.4632 33.2309 24.4668 33.2227L24.8723 32.3122C24.968 32.0972 25.2198 32.0005 25.4349 32.0962C25.4445 32.1005 25.4539 32.1051 25.4632 32.1101C25.4848 32.1217 25.5051 32.1323 25.5239 32.1418C25.7994 32.2812 26.0998 32.4007 26.4249 32.5003C26.9402 32.6582 27.4472 32.7372 27.9458 32.7372C28.8933 32.7372 29.367 32.5003 29.367 32.0265C29.367 31.7772 29.232 31.5923 28.9618 31.4718C28.6917 31.3513 28.2575 31.2245 27.659 31.0915C27.0025 30.9503 26.454 30.7986 26.0135 30.6365C25.573 30.4744 25.1948 30.2147 24.879 29.8573C24.5631 29.5 24.4053 29.0179 24.4053 28.4112C24.4053 27.6964 24.6629 27.0835 25.1782 26.5723C25.6935 26.0612 26.4373 25.7475 27.4097 25.6311V25.0078C27.4097 24.5947 27.7447 24.2598 28.1578 24.2598C28.5709 24.2598 28.9058 24.5947 28.9058 25.0078V25.6062C29.3795 25.6477 29.8346 25.7308 30.2709 25.8555C30.5784 25.9434 30.8622 26.0498 31.1223 26.1748C31.144 26.1853 31.1686 26.1976 31.196 26.2117C31.3331 26.2823 31.3932 26.4463 31.3341 26.5887L30.7681 27.9524C30.7213 28.0653 30.5919 28.1188 30.479 28.0719C30.474 28.0699 30.4691 28.0676 30.4643 28.0652C30.4228 28.0443 30.3875 28.027 30.3583 28.0131C29.6391 27.6718 28.9388 27.5011 28.2575 27.5011C27.7671 27.5011 27.4097 27.5738 27.1853 27.7193C26.9609 27.8647 26.8487 28.0538 26.8487 28.2865C26.8487 28.5192 26.9817 28.6938 27.2477 28.8101C27.5136 28.9265 27.9417 29.047 28.5318 29.1717C29.1967 29.313 29.7473 29.4646 30.1836 29.6267C30.62 29.7888 30.9981 30.0464 31.3181 30.3996C31.6381 30.7529 31.7981 31.2328 31.7981 31.8396Z" fill="#FF5A3C"/>
</svg>
