<svg width="173" height="56" viewBox="0 0 173 56" fill="none" xmlns="http://www.w3.org/2000/svg">
<path d="M36.8372 24.1401C36.8372 26.4081 35.5772 27.8841 32.7692 27.8841H28.5572V20.5041H32.7692C35.5772 20.5041 36.8372 21.9081 36.8372 24.1401ZM23.5172 16.3281V41.4561H28.5572V31.6641H30.9332L36.4772 41.4561H42.3092L36.2972 31.2681C40.3292 30.1881 42.0212 27.0921 42.0212 24.0321C42.0212 19.8201 38.9972 16.3281 32.9492 16.3281H23.5172ZM55.1477 25.3281C57.7397 25.3281 59.8277 26.9841 59.8997 29.6121H50.4317C50.8277 26.8761 52.7357 25.3281 55.1477 25.3281ZM64.6157 35.1921H59.1797C58.5317 36.5241 57.3437 37.6041 55.1837 37.6041C52.6637 37.6041 50.6477 35.9481 50.3957 32.9961H64.9757C65.0837 32.3481 65.1197 31.7001 65.1197 31.0521C65.1197 25.1121 61.0517 21.1881 55.2917 21.1881C49.3877 21.1881 45.2837 25.1841 45.2837 31.4841C45.2837 37.7481 49.4957 41.7801 55.2917 41.7801C60.2237 41.7801 63.5357 38.8641 64.6157 35.1921ZM67.5025 31.4121C67.5025 37.6401 71.5345 41.7801 76.5745 41.7801C79.7425 41.7801 82.0105 40.2681 83.1985 38.5401V41.4561H88.2745V21.5121H83.1985V24.3561C82.0105 22.7001 79.8145 21.1881 76.6105 21.1881C71.5345 21.1881 67.5025 25.1841 67.5025 31.4121ZM83.1985 31.4841C83.1985 35.2641 80.6785 37.3521 77.9065 37.3521C75.2065 37.3521 72.6505 35.1921 72.6505 31.4121C72.6505 27.6321 75.2065 25.6161 77.9065 25.6161C80.6785 25.6161 83.1985 27.7041 83.1985 31.4841ZM107.165 41.4561H112.205V29.7561C112.205 24.2481 108.893 21.2241 104.249 21.2241C101.693 21.2241 99.5329 22.3041 98.2369 23.9961V21.5121H93.1969V41.4561H98.2369V30.4401C98.2369 27.2361 100.001 25.5081 102.737 25.5081C105.401 25.5081 107.165 27.2361 107.165 30.4401V41.4561ZM117.79 35.2641C117.79 39.8361 120.346 41.4561 124.162 41.4561H127.33V37.2081H124.99C123.406 37.2081 122.866 36.6321 122.866 35.3001V25.6521H127.33V21.5121H122.866V16.5801H117.79V21.5121H115.414V25.6521H117.79V35.2641ZM139.451 35.4441L134.303 21.5121H128.651L136.643 40.9521L132.323 50.8881H137.687L150.035 21.5121H144.671L139.451 35.4441Z" fill="#071C1F"/>
<path d="M158.044 38.7561C158.044 37.1001 156.748 35.8041 154.984 35.8041C153.148 35.8041 151.852 37.1001 151.852 38.7561C151.852 40.4121 153.148 41.7081 154.984 41.7081C156.748 41.7081 158.044 40.4121 158.044 38.7561Z" fill="#FF5A3C"/>
<path d="M45.1918 48.9988C40.9636 52.5298 35.7663 54.6994 30.2826 55.2226C24.7988 55.7458 19.285 54.5983 14.4654 51.9306C9.64579 49.2629 5.7457 45.1999 3.2774 40.2752C0.809095 35.3505 -0.111994 29.7944 0.635108 24.3366C1.38221 18.8789 3.76256 13.7747 7.46353 9.69449C11.1645 5.61428 16.013 2.74885 21.3722 1.47454C26.7315 0.200236 32.3508 0.576651 37.4922 2.55435C42.6336 4.53204 47.0567 8.01853 50.1804 12.5559L44.5597 16.4254C42.2166 13.022 38.8989 10.4067 35.0423 8.92329C31.1858 7.43982 26.9707 7.15747 22.9508 8.11333C18.9309 9.06918 15.294 11.2185 12.5179 14.2791C9.74183 17.3396 7.95633 21.1683 7.39594 25.2621C6.83554 29.356 7.52644 33.5236 9.37791 37.2176C11.2294 40.9116 14.1548 43.9593 17.77 45.9603C21.3852 47.9613 25.5211 48.8221 29.6344 48.4296C33.7477 48.0371 37.6462 46.4097 40.8177 43.7611L45.1918 48.9988Z" fill="#FF5A3C"/>
</svg>
